<?xml version="1.0" encoding="UTF-8"?>
<svg id="Layer_1" xmlns="http://www.w3.org/2000/svg" version="1.1" viewBox="0 0 454.5 350.4">
  <!-- Generator: Adobe Illustrator 30.2.1, SVG Export Plug-In . SVG Version: 2.1.1 Build 1)  -->
  <defs>
    <style>
      .st0 {
        fill: #fff;
      }
    </style>
  </defs>
  <path class="st0" d="M366.4,327.2c-5.7,14.9-21.3,18.2-33.7,13.3l-162.4-63.3c-9.5-3.7-12.9-16.2-11-25.7L248.1,22.8c4.2-10.7,18.7-18.3,29.4-14.1l163.9,63.6c10.3,4,15.8,18.6,11.8,29.1l-86.8,225.8ZM369.8,257.8l64-165.1-164.6-63.8-63.8,165,164.3,63.9Z"/>
  <path class="st0" d="M186.5,341.7c-8.6,6.8-28.7,14.5-37.5,2.3L4.3,144.4c-8.1-11.2-4.1-25.5,6.3-32.9l48.9-34.7,66.4,218c13.9,45.8,59,23.8,86.6,26.4l-25.9,20.3Z"/>
  <path class="st0" d="M131.6,267.3l-60.5-198.7c-4.2-13.7,2.6-26.4,15.6-31.3l60.8-17.6-15.9,247.6Z"/>
  <path class="st0" d="M148.8,238.8l12.1-215.9c.7-13.4,10.5-21.5,22.7-22.9l58.2,3.6-92.9,235.3Z"/>
  <path class="st0" d="M208.1,307.1l-38.1,1.5c-8.6-2.1-18-5.9-22.2-13s-2.9-18-.7-23.6c5.3,7.2,11.1,14.1,17.4,16.8l43.5,18.3Z"/>
  <path class="st0" d="M352.2,10.8c13.2.3,23.9,8.3,23.9,21.7-19.1-6.5-36.4-12.8-55.1-22.3l31.2.7Z"/>
  <path class="st0" d="M352,159.3c15,42.7,29.8,40.6,9.3,80l-137.3-53,13.5-36.2,61.7-35.3,18.7,57.3,34.1-12.8Z"/>
  <path class="st0" d="M364,101.4c8.7-2.9,19.5,2.9,21.7,10.2,3.1,10.1-1.3,20.8-10.3,24s-20.5-1.2-23.8-10.3c-3.4-9.4,1.3-20.3,12.3-23.9Z"/>
</svg>